name 900006_25.mot
datacolumns 153
datarows 4
range 0.49166667 0.51666665
endheader

                time	           pelvis_tx	           pelvis_ty	           pelvis_tz	         pelvis_tilt	         pelvis_list	     pelvis_rotation	       hip_flexion_r	     hip_adduction_r	      hip_rotation_r	        knee_angle_r	       ankle_angle_r	    subtalar_angle_r	         mtp_angle_r	       hip_flexion_l	     hip_adduction_l	      hip_rotation_l	        knee_angle_l	       ankle_angle_l	    subtalar_angle_l	         mtp_angle_l	    lumbar_extension	      lumbar_bending	     lumbar_rotation	     ground_force_vx	     ground_force_vy	     ground_force_vz	     ground_force_px	     ground_force_py	     ground_force_pz	     ground_force_vx	     ground_force_vy	     ground_force_vz	     ground_force_px	     ground_force_py	     ground_force_pz	     ground_torque_x	     ground_torque_y	     ground_torque_z	     ground_torque_x	     ground_torque_y	     ground_torque_z	    ground_marker_px	    ground_marker_py	    ground_marker_pz	    ground_marker_px	    ground_marker_py	    ground_marker_pz	    ground_marker_px	    ground_marker_py	    ground_marker_pz	    ground_marker_px	    ground_marker_py	    ground_marker_pz	    ground_marker_px	    ground_marker_py	    ground_marker_pz	    ground_marker_px	    ground_marker_py	    ground_marker_pz	    ground_marker_px	    ground_marker_py	    ground_marker_pz	    ground_marker_px	    ground_marker_py	    ground_marker_pz	    ground_marker_px	    ground_marker_py	    ground_marker_pz	    ground_marker_px	    ground_marker_py	    ground_marker_pz	    ground_marker_px	    ground_marker_py	    ground_marker_pz	    ground_marker_px	    ground_marker_py	    ground_marker_pz	    ground_marker_px	    ground_marker_py	    ground_marker_pz	    ground_marker_px	    ground_marker_py	    ground_marker_pz	    ground_marker_px	    ground_marker_py	    ground_marker_pz	    ground_marker_px	    ground_marker_py	    ground_marker_pz	    ground_marker_px	    ground_marker_py	    ground_marker_pz	    ground_marker_px	    ground_marker_py	    ground_marker_pz	    ground_marker_px	    ground_marker_py	    ground_marker_pz	    ground_marker_px	    ground_marker_py	    ground_marker_pz	    ground_marker_px	    ground_marker_py	    ground_marker_pz	    ground_marker_px	    ground_marker_py	    ground_marker_pz	    ground_marker_px	    ground_marker_py	    ground_marker_pz	    ground_marker_px	    ground_marker_py	    ground_marker_pz	    ground_marker_px	    ground_marker_py	    ground_marker_pz	    ground_marker_px	    ground_marker_py	    ground_marker_pz	    ground_marker_px	    ground_marker_py	    ground_marker_pz	    ground_marker_px	    ground_marker_py	    ground_marker_pz	    ground_marker_px	    ground_marker_py	    ground_marker_pz	    ground_marker_px	    ground_marker_py	    ground_marker_pz	    ground_marker_px	    ground_marker_py	    ground_marker_pz	    ground_marker_px	    ground_marker_py	    ground_marker_pz	    ground_marker_px	    ground_marker_py	    ground_marker_pz	    ground_marker_px	    ground_marker_py	    ground_marker_pz	    ground_marker_px	    ground_marker_py	    ground_marker_pz	    ground_marker_px	    ground_marker_py	    ground_marker_pz	    ground_marker_px	    ground_marker_py	    ground_marker_pz	
          0.49166667	         -1.88253534	          0.84036547	          0.25180840	          4.11005020	         -1.08137393	         -7.74060345	         18.08192062	          2.28592730	         -0.85501921	        -37.35560608	         14.96816349	          0.00000000	          0.00000000	         -6.51394558	          1.72857487	         -5.80473852	        -12.20846939	         12.38912964	          0.00000000	          0.00000000	         -4.12283373	          3.47515059	         -3.58121252	          0.00000000	          0.00000000	          0.00000000	         -1.65618384	          0.00000000	          0.31566895	         -1.78604927	        429.50131313	         13.29071423	         -1.94780261	          0.00000000	          0.20757101	          0.00000000	          0.00000000	          0.00000000	          0.00000000	         -0.39937952	          0.00000000	         -1.91413355	          0.76694024	          0.24211536	         -1.92937160	          0.76569104	          0.29747033	         -1.89889550	          0.76818949	          0.18676040	         -1.85239947	          0.41957170	          0.32683536	         -1.97464025	          0.42613140	          0.20047733	         -1.91986108	          0.08169924	          0.32229507	         -2.05180073	          0.06914437	          0.21008451	         -1.88253534	          0.84036547	          0.25180840	         -1.89694595	          0.84444177	          0.36091894	         -1.86812472	          0.83628917	          0.14269789	         -2.06416583	          0.86658019	          0.26224682	         -2.05432701	          0.86258566	          0.21286301	         -1.83462191	          0.42875937	          0.38676345	         -1.95890749	          0.40975407	          0.14134417	         -1.82783031	          0.42260161	          0.26331323	         -1.96624005	          0.41753954	          0.25796938	         -1.93502939	          0.08491073	          0.35643977	         -2.05777740	          0.06938272	          0.17407793	         -1.91043484	          0.07552858	          0.29044935	         -2.05685759	          0.07134709	          0.24342652	         -1.88982773	          1.19240606	          0.23493055	         -1.87773359	          1.09097254	          0.23222549	         -2.00055265	          1.26048613	          0.22109862	         -1.84583044	          0.06678760	          0.35611275	         -1.96539032	          0.04515178	          0.20754835	         -1.75884306	          0.60141110	          0.36190334	         -1.83358550	          0.55139166	          0.12827612	         -1.82653797	          0.61735398	          0.39055339	         -1.85650599	          0.59893024	          0.19319144	         -1.81713736	          0.55949855	          0.38657475	         -1.87113273	          0.54453504	          0.20125784	         -1.78730190	          0.17660153	          0.38007787	         -2.03258538	          0.16438822	          0.08026551	         -1.85895836	          0.17585389	          0.34230366	         -2.03584671	          0.15961474	          0.16123080	         -1.89811158	          1.19135821	          0.29199827	         -1.87718093	          1.19400227	          0.18500431	
          0.50000000	         -1.87801480	          0.84000278	          0.25160435	          4.05481482	         -1.21143949	         -7.59526587	         18.58779335	          2.37953568	         -0.99783719	        -36.16826630	         14.17701626	          0.00000000	          0.00000000	         -6.84935141	          1.65304172	         -5.76477289	        -12.16198921	         12.64766121	          0.00000000	          0.00000000	         -4.20423889	          3.46266389	         -3.48858452	          0.00000000	          0.00000000	          0.00000000	         -1.65407825	          0.00000000	          0.31571701	         -0.31803286	        428.44685134	         13.29823631	         -1.94656885	          0.00000000	          0.20801175	          0.00000000	          0.00000000	          0.00000000	          0.00000000	         -0.47239282	          0.00000000	         -1.90969062	          0.76658726	          0.24211016	         -1.92478287	          0.76545745	          0.29750764	         -1.89459848	          0.76771706	          0.18671267	         -1.84527910	          0.41992927	          0.32706565	         -1.97298348	          0.42656597	          0.20053479	         -1.90230548	          0.07980438	          0.32266214	         -2.05176258	          0.06935587	          0.21032947	         -1.87801480	          0.84000278	          0.25160435	         -1.89210057	          0.84429699	          0.36065200	         -1.86392891	          0.83570850	          0.14255668	         -2.05958343	          0.86634076	          0.26294294	         -2.04975581	          0.86240000	          0.21335943	         -1.82708323	          0.42929682	          0.38695917	         -1.95702958	          0.40943196	          0.14146075	         -1.82103837	          0.42319432	          0.26354083	         -1.96323323	          0.41722605	          0.25827593	         -1.91743433	          0.08256241	          0.35686392	         -2.05775285	          0.06961951	          0.17432533	         -1.89280140	          0.07437654	          0.29066378	         -2.05643654	          0.07160231	          0.24366209	         -1.88465464	          1.19185686	          0.23477018	         -1.87281728	          1.09038925	          0.23221061	         -1.99534035	          1.26017559	          0.22159414	         -1.82782090	          0.06588536	          0.35609868	         -1.96529484	          0.04522863	          0.20764868	         -1.75293803	          0.60248029	          0.36182210	         -1.83089149	          0.55044609	          0.12821709	         -1.82094300	          0.61784202	          0.39083910	         -1.85257566	          0.59790367	          0.19325371	         -1.81108582	          0.56020594	          0.38681605	         -1.86757040	          0.54370463	          0.20119709	         -1.77253020	          0.17866859	          0.37988606	         -2.03202939	          0.16452822	          0.08062830	         -1.84391713	          0.17622784	          0.34257141	         -2.03492451	          0.15970862	          0.16136615	         -1.89270413	          1.19093847	          0.29194647	         -1.87220955	          1.19332695	          0.18471508	
          0.50833333	         -1.87349749	          0.83958304	          0.25143462	          3.98944378	         -1.32285309	         -7.44140100	         19.08483887	          2.43940043	         -1.11618340	        -34.96132660	         13.24478912	          0.00000000	          0.00000000	         -7.16886282	          1.58918607	         -5.72592688	        -12.11199856	         12.90072536	          0.00000000	          0.00000000	         -4.23707247	          3.35424638	         -3.31547523	          0.00000000	          0.00000000	          0.00000000	         -1.65198413	          0.00000000	          0.31587476	          1.03683349	        427.19226427	         13.38315390	         -1.94534656	          0.00000000	          0.20846756	          0.00000000	          0.00000000	          0.00000000	          0.00000000	         -0.53189990	          0.00000000	         -1.90528691	          0.76615715	          0.24214226	         -1.92022336	          0.76514232	          0.29758415	         -1.89035046	          0.76717192	          0.18670036	         -1.83850574	          0.42018658	          0.32739288	         -1.97132289	          0.42671070	          0.20060724	         -1.88484228	          0.07820176	          0.32302403	         -2.05168319	          0.06957940	          0.21055138	         -1.87349749	          0.83958304	          0.25143462	         -1.88724995	          0.84406054	          0.36044729	         -1.85974514	          0.83510554	          0.14242198	         -2.05498004	          0.86607695	          0.26363307	         -2.04516506	          0.86219591	          0.21387218	         -1.81969011	          0.42979628	          0.38722289	         -1.95515990	          0.40913773	          0.14156382	         -1.81491148	          0.42298257	          0.26534554	         -1.96104348	          0.41737103	          0.25858271	         -1.89995909	          0.08051345	          0.35726422	         -2.05769992	          0.06987244	          0.17455186	         -1.87493026	          0.07316812	          0.29103085	         -2.05615211	          0.07183732	          0.24388705	         -1.87959230	          1.19138813	          0.23485249	         -1.86796665	          1.08988965	          0.23256752	         -1.99017227	          1.25984502	          0.22213359	         -1.80996561	          0.06508315	          0.35610104	         -1.96517515	          0.04532386	          0.20771307	         -1.74708533	          0.60345268	          0.36174616	         -1.82815719	          0.54947001	          0.12811078	         -1.81508934	          0.61853123	          0.39120382	         -1.84896696	          0.59711009	          0.19291559	         -1.80491436	          0.56099266	          0.38753581	         -1.86450970	          0.54277784	          0.20100433	         -1.75804687	          0.18088430	          0.37983689	         -2.03148580	          0.16469730	          0.08101425	         -1.82872903	          0.17671297	          0.34269929	         -2.03420711	          0.15972446	          0.16150241	         -1.88729453	          1.19068015	          0.29202086	         -1.86745131	          1.19266355	          0.18477733	
          0.51666665	         -1.86897159	          0.83911222	          0.25131461	          3.91507530	         -1.41088271	         -7.27879333	         19.57063293	          2.46650171	         -1.21701539	        -33.73923874	         12.20102024	          0.00000000	          0.00000000	         -7.47378969	          1.54110038	         -5.69458675	        -12.05834484	         13.13347530	          0.00000000	          0.00000000	         -4.24859047	          3.25010681	         -3.31132817	          0.00000000	          0.00000000	          0.00000000	         -1.64994006	          0.00000000	          0.31610568	          2.29739117	        425.90017888	         13.38596947	         -1.94414429	          0.00000000	          0.20894287	          0.00000000	          0.00000000	          0.00000000	          0.00000000	         -0.59342676	          0.00000000	         -1.90088606	          0.76566529	          0.24221879	         -1.91565037	          0.76474959	          0.29770845	         -1.88612163	          0.76658094	          0.18672913	         -1.83169878	          0.42046934	          0.32774314	         -1.96982205	          0.42704070	          0.20068915	         -1.86752522	          0.07688373	          0.32338297	         -2.05155444	          0.06982785	          0.21075997	         -1.86897159	          0.83911222	          0.25131461	         -1.88238263	          0.84372902	          0.36032018	         -1.85556042	          0.83449543	          0.14230904	         -2.05035138	          0.86579776	          0.26431185	         -2.04055381	          0.86197078	          0.21439365	         -1.81244516	          0.43024805	          0.38752940	         -1.95329320	          0.40888423	          0.14165585	         -1.80870986	          0.42299211	          0.26669350	         -1.95937943	          0.41781536	          0.25897571	         -1.88266206	          0.07875822	          0.35764092	         -2.05760741	          0.07015309	          0.17476681	         -1.85744691	          0.07218359	          0.29138717	         -2.05569935	          0.07205243	          0.24409091	         -1.87450433	          1.19092834	          0.23503618	         -1.86306882	          1.08940268	          0.23301008	         -1.98516381	          1.25964546	          0.22245523	         -1.79231310	          0.06440674	          0.35614949	         -1.96504116	          0.04543055	          0.20776814	         -1.74131274	          0.60431480	          0.36167660	         -1.82540584	          0.54848301	          0.12796199	         -1.80929482	          0.61905193	          0.39155996	         -1.84551144	          0.59641159	          0.19274075	         -1.79881048	          0.56179988	          0.38812548	         -1.86170948	          0.54194480	          0.20099048	         -1.74387622	          0.18322901	          0.37994468	         -2.03094053	          0.16489308	          0.08139283	         -1.81411099	          0.17698309	          0.34308761	         -2.03331470	          0.15986769	          0.16170231	         -1.88199449	          1.19040298	          0.29202509	         -1.86255264	          1.19203341	          0.18512511	
